HIERARCHY
ROOT Hips
{
     OFFSET 13.87060 96.40650 -12.50640
     CHANNELS 6 Xposition Yposition Zposition Zrotation Xrotation Yrotation
     JOINT Spine
     {
          OFFSET 0.00000 11.89050 0.00000
          CHANNELS 3 Zrotation Xrotation Yrotation
          JOINT Spine1
          {
               OFFSET 0.00000 25.65740 0.12766
               CHANNELS 3 Zrotation Xrotation Yrotation
               JOINT HEad
               {
                    OFFSET 0.00000 8.73416 0.01134
                    CHANNELS 3 Zrotation Xrotation Yrotation
                    End Site
                    {
                         OFFSET -0.29000 12.77420 2.51395
                    }
               }
               JOINT LeftShoulder1
               {
                    OFFSET 8.99000 -0.36225 -0.22000
                    CHANNELS 3 Zrotation Xrotation Yrotation
                    JOINT LeftArm
                    {
                         OFFSET 10.28270 -0.00338 0.32212
                         CHANNELS 3 Zrotation Xrotation Yrotation
                         JOINT LeftForeArm
                         {
                              OFFSET 32.76690 0.09914 -1.42434
                              CHANNELS 3 Zrotation Xrotation Yrotation
                              JOINT LeftHand
                              {
                                   OFFSET 27.56430 0.08536 1.02216
                                   CHANNELS 3 Zrotation Xrotation Yrotation
                                   End Site
                                   {
                                        OFFSET 16.74430 -0.60000 1.50291
                                   }
                              }
                         }
                    }
               }
               JOINT RightShoulder
               {
                    OFFSET -8.99000 -0.36225 -0.22000
                    CHANNELS 3 Zrotation Xrotation Yrotation
                    JOINT RightArm
                    {
                         OFFSET -10.28270 -0.00338 0.32212
                         CHANNELS 3 Zrotation Xrotation Yrotation
                         JOINT RightForeArm
                         {
                              OFFSET -32.89710 0.09914 -1.42434
                              CHANNELS 3 Zrotation Xrotation Yrotation
                              JOINT RightHand
                              {
                                   OFFSET -27.49210 0.08536 1.02216
                                   CHANNELS 3 Zrotation Xrotation Yrotation
                                   End Site
                                   {
                                        OFFSET -16.63120 -0.60000 1.50291
                                   }
                              }
                         }
                    }
               }
          }
     }
     JOINT LeftUpLeg
     {
          OFFSET 8.94580 -8.66707 0.10165
          CHANNELS 3 Zrotation Xrotation Yrotation
          JOINT LeftLeg
          {
               OFFSET 0.00000 -44.42270 1.37270
               CHANNELS 3 Zrotation Xrotation Yrotation
               JOINT LeftFoot
               {
                    OFFSET -0.25355 -42.09240 -1.46059
                    CHANNELS 3 Zrotation Xrotation Yrotation
                    JOINT LeftToes
                    {
                         OFFSET -0.04000 -4.41509 8.49910
                         CHANNELS 3 Zrotation Xrotation Yrotation
                         End Site
                         {
                              OFFSET 0.08000 -0.04745 9.77979
                         }
                    }
               }
          }
     }
     JOINT RightUpLeg
     {
          OFFSET -8.94580 -8.66707 0.10165
          CHANNELS 3 Zrotation Xrotation Yrotation
          JOINT RightLeg
          {
               OFFSET 0.00000 -44.42270 1.37270
               CHANNELS 3 Zrotation Xrotation Yrotation
               JOINT RightFoot
               {
                    OFFSET 0.25355 -42.09240 -1.46059
                    CHANNELS 3 Zrotation Xrotation Yrotation
                    JOINT RightToes
                    {
                         OFFSET 0.04000 -4.41509 8.49910
                         CHANNELS 3 Zrotation Xrotation Yrotation
                         End Site
                         {
                              OFFSET -0.08000 -0.13745 9.77979
                         }
                    }
               }
          }
     }
}
MOTION
Frames: 10
Frame Time: 0.01667
-11.08540 101.57700 -24.65090 36.40700 -15.36890 29.71530 -10.45740 13.29240 3.78851 -25.88030 25.27490 12.37460 19.97350 25.55960 -28.07280 0.00000 0.00000 0.00000 -75.32980 -28.33700 -82.63080 -6.42554 34.26460 -94.68880 42.20630 5.35514 -7.74004 -2.23087 0.37411 7.96570 29.61670 -15.84440 87.84150 4.64445 11.90290 -6.34240 -6.05113 9.31672 8.36647 72.29240 -56.80670 79.98460 54.54270 88.34260 -60.37200 -18.99090 13.86870 3.48107 31.32700 31.62600 -29.59480 -21.06800 19.57540 -4.52937 4.37397 21.95870 -24.72870 11.31400 -31.26980 2.12647 14.22260 38.76150 -20.69020 
-11.04400 101.58800 -24.89630 36.00320 -15.33450 29.68760 -10.37600 13.25950 3.74596 -25.71110 25.25690 12.21270 19.58210 25.18500 -27.88960 0.00000 0.00000 0.00000 -74.85420 -28.08530 -82.28860 -5.85076 33.82850 -94.63170 42.22200 5.51413 -7.31861 -2.08190 0.38223 7.78509 29.63140 -15.87600 87.64430 4.16230 11.49420 -6.15537 -6.04333 9.32013 8.31133 72.36540 -57.14750 79.90960 53.45900 88.43020 -58.98100 -18.86950 14.00730 3.47981 31.25210 31.56090 -29.64710 -20.79880 19.25540 -4.62073 4.46189 21.99600 -24.57360 11.71610 -31.41780 2.23030 14.56240 39.19620 -21.12990 
-10.91930 101.61900 -25.15600 35.54290 -15.34460 29.55340 -10.21590 13.22840 3.74228 -25.43670 25.26500 12.10660 19.02400 24.82000 -27.70260 0.00000 0.00000 0.00000 -74.56480 -27.70720 -82.01590 -5.09506 33.45200 -94.72310 42.38150 5.69875 -6.78804 -1.89213 0.38836 7.42453 29.75430 -15.94220 87.48790 3.53142 11.10270 -5.90816 -5.94446 9.33467 8.22961 72.45400 -57.51190 79.94780 53.28590 88.55530 -58.43910 -18.59170 13.97200 3.42076 31.19830 31.49570 -29.76890 -20.53660 18.95090 -4.64685 4.51542 22.00320 -24.28750 12.28940 -31.71510 2.39021 15.11220 39.89350 -21.81300 
-10.70420 101.67000 -25.41980 35.05070 -15.39620 29.30940 -9.98635 13.18640 3.74447 -25.08220 25.28820 11.98340 18.36050 24.52310 -27.44770 0.00000 0.00000 0.00000 -74.36280 -27.32760 -81.71720 -4.18428 33.12600 -94.92780 42.64450 5.89288 -6.20800 -1.68838 0.39090 6.94420 29.98790 -15.97300 87.43470 2.70313 10.72590 -5.58070 -5.77170 9.35452 8.20539 72.42310 -57.87150 79.96830 56.10540 88.72290 -60.86890 -18.16380 13.77060 3.30772 31.11600 31.41600 -29.86500 -20.30140 18.67320 -4.59822 4.53397 21.95640 -23.91910 12.82600 -32.03640 2.54818 15.74090 40.67880 -22.55830 
-10.41240 101.73800 -25.69260 34.55200 -15.46800 28.96100 -9.72540 13.11500 3.71740 -24.68030 25.28150 11.76920 17.62850 24.34960 -27.07610 0.00000 0.00000 0.00000 -74.13530 -27.05310 -81.25920 -3.25590 32.82250 -95.13000 42.91280 6.07290 -5.67016 -1.47774 0.39207 6.45817 30.28960 -15.84700 87.44710 1.57348 10.29170 -5.13092 -5.53518 9.37837 8.24853 72.07970 -58.22710 79.77000 62.04850 88.90220 -66.42970 -17.69090 13.51000 3.17907 30.93220 31.29910 -29.79950 -20.10050 18.39160 -4.49576 4.49034 21.86630 -23.51040 13.17080 -32.26910 2.65479 16.32220 41.42010 -23.17530 
-10.06700 101.82200 -25.98570 34.05650 -15.53350 28.52350 -9.46792 13.00110 3.64213 -24.25090 25.20040 11.43360 16.82460 24.27660 -26.56770 0.00000 0.00000 0.00000 -73.78270 -26.87490 -80.54270 -2.48939 32.49700 -95.16860 43.05450 6.21871 -5.25802 -1.23971 0.39596 6.05322 30.62220 -15.47470 87.41890 0.04497 9.71565 -4.51810 -5.27116 9.40534 8.29315 71.22270 -58.59740 79.11750 67.87750 89.05870 -71.89990 -17.32180 13.32240 3.08255 30.63600 31.15130 -29.50020 -19.92670 18.06700 -4.36220 4.36594 21.75440 -23.08230 13.32340 -32.38870 2.70456 16.83240 42.09880 -23.63780 
-9.67502 101.92000 -26.29880 33.55300 -15.58160 28.00360 -9.21448 12.84580 3.52619 -23.78990 25.04100 10.99560 15.93450 24.17280 -25.91470 0.00000 0.00000 0.00000 -73.28550 -26.66860 -79.57170 -1.94851 32.10230 -94.94930 42.96200 6.33028 -4.99255 -0.95218 0.40481 5.74490 31.00520 -14.87290 87.26850 -1.90463 8.96066 -3.72997 -5.06515 9.42796 8.29002 69.69920 -58.97550 77.80890 68.10430 89.19860 -71.83470 -17.13020 13.28230 3.04115 30.20640 30.95500 -28.96340 -19.78390 17.68520 -4.18412 4.19576 21.63130 -22.65610 13.38930 -32.42460 2.72422 17.30590 42.72990 -24.03920 
-9.23533 102.03500 -26.62750 33.02330 -15.61490 27.39670 -8.95840 12.67150 3.38730 -23.27540 24.83930 10.49510 14.93820 23.91420 -25.12910 0.00000 0.00000 0.00000 -72.73330 -26.30430 -78.43680 -1.48380 31.61100 -94.53290 42.59290 6.43558 -4.80713 -0.61889 0.41766 5.50577 31.50380 -14.12800 86.98200 -4.24146 8.05339 -2.77602 -4.97213 9.43923 8.25980 67.39090 -59.28670 75.41630 32.82330 89.50420 -36.41240 -17.08110 13.42850 3.05296 29.49520 30.59740 -28.17940 -19.68760 17.25980 -3.90952 4.05443 21.46660 -22.28650 13.46180 -32.37510 2.73478 17.74630 43.28980 -24.43300 
-8.73569 102.16500 -26.96070 32.43690 -15.65340 26.67810 -8.67486 12.49840 3.24475 -22.67330 24.63560 9.97149 13.81880 23.47900 -24.24720 0.00000 0.00000 0.00000 -72.23940 -25.73860 -77.26060 -0.87246 31.02750 -94.04960 41.97630 6.56436 -4.61367 -0.25316 0.43240 5.29764 32.16550 -13.32230 86.58820 -6.92174 7.10756 -1.67098 -4.94101 9.44306 8.24776 64.26530 -59.44930 71.95390 -32.66710 89.11410 29.02780 -17.15980 13.70580 3.10749 28.38220 29.97820 -27.12640 -19.62680 16.81120 -3.49795 3.97720 21.23270 -22.00840 13.61010 -32.22580 2.75010 18.12460 43.74760 -24.79080 
-8.18161 102.30900 -27.29530 31.75070 -15.71670 25.82410 -8.35573 12.34680 3.11033 -21.94870 24.45700 9.45778 12.57720 22.91620 -23.30070 0.00000 0.00000 0.00000 -71.82660 -25.02360 -76.15560 -0.05125 30.39040 -93.54930 41.20080 6.71653 -4.38673 0.16492 0.44892 5.08862 32.98130 -12.52280 86.11970 -9.88400 6.34973 -0.44219 -4.86970 9.45019 8.26535 60.40040 -59.36430 67.43890 -48.59930 87.95640 44.70860 -17.34250 14.05800 3.19328 26.81690 29.03570 -25.77000 -19.53620 16.34880 -2.97692 3.93776 20.89890 -21.80430 13.81650 -31.96090 2.76340 18.41900 44.10300 -25.06060 
